<svg xmlns="http://www.w3.org/2000/svg" viewBox="-80 -80 160 160" width="160" height="160"><defs><linearGradient id="paper" x2="0" y2="1"><stop stop-color="#fbf7f1"/><stop offset="1" stop-color="#efe2d3"/></linearGradient></defs><rect x="-80" y="-80" width="160" height="160" rx="14" fill="url(#paper)"/><ellipse cx="0" cy="61" rx="36" ry="6" fill="#5d3216" opacity=".1"/><path d="M-44.4,22.8L-24.1,44.1L-23.0,39.3z" style="fill:rgb(220,134,93);fill-opacity:1"></path><path d="M-51.0,-4.0L-44.0,24.2L-39.4,22.7z" style="fill:rgb(255,156,109);fill-opacity:1"></path><path d="M-25.4,43.1L2.6,51.6L-0.6,45.8z" style="fill:rgb(190,115,79);fill-opacity:1"></path><path d="M-43.5,-30.2L-51.3,-2.8L-45.7,0.3z" style="fill:rgb(281,173,121);fill-opacity:1"></path><path d="M-39.9,21.9L-44.5,23.3L-22.8,40.2z" style="fill:rgb(220,134,93);fill-opacity:1"></path><path d="M1.0,51.4L29.1,44.8L21.8,40.2zM-23.9,38.9L-25.0,43.7L0.1,46.4z" style="fill:rgb(190,115,79);fill-opacity:1"></path><path d="M-45.8,-0.7L-51.3,-3.8L-39.8,23.4z" style="fill:rgb(255,156,109);fill-opacity:1"></path><path d="M-23.8,-48.8L-44.3,-29.3L-40.1,-22.2z" style="fill:rgb(294,181,127);fill-opacity:1"></path><path d="M-1.6,45.9L1.7,51.7L22.7,40.3z" style="fill:rgb(190,115,79);fill-opacity:1"></path><path d="M-39.7,-23.0L-43.8,-30.2L-46.3,0.5z" style="fill:rgb(281,173,121);fill-opacity:1"></path><path d="M27.6,45.4L48.3,25.6L38.1,24.0z" style="fill:rgb(190,115,79);fill-opacity:1"></path><path d="M-40.9,22.3L-23.4,40.3L-0.2,0.1z" style="fill:rgb(291,179,125);fill-opacity:1"></path><path d="M2.8,-54.8L-25.0,-48.4L-23.8,-38.4z" style="fill:rgb(294,181,126);fill-opacity:1"></path><path d="M-46.8,-0.9L-40.4,23.2L0.1,0.5z" style="fill:rgb(291,179,125);fill-opacity:1"></path><path d="M21.0,40.8L28.4,45.4L39.0,23.7z" style="fill:rgb(190,115,79);fill-opacity:1"></path><path d="M-24.2,39.8L-0.4,46.8L-0.6,-0.2z" style="fill:rgb(291,179,125);fill-opacity:1"></path><path d="M-23.1,-39.0L-24.2,-48.9L-40.7,-22.2z" style="fill:rgb(294,181,127);fill-opacity:1"></path><path d="M47.4,26.8L55.1,-0.9L43.9,1.6z" style="fill:rgb(190,115,79);fill-opacity:1"></path><path d="M-40.4,-23.7L-46.8,0.0L0.1,1.0zM-1.3,46.8L22.6,41.0L-1.1,-0.2z" style="fill:rgb(291,179,125);fill-opacity:1"></path><path d="M29.2,-46.5L1.5,-55.0L-1.4,-44.2z" style="fill:rgb(280,172,120);fill-opacity:1"></path><path d="M37.8,24.9L48.0,26.4L44.5,1.0z" style="fill:rgb(190,115,79);fill-opacity:1"></path><path d="M-23.4,-40.0L-40.9,-22.9L-0.2,1.4z" style="fill:rgb(291,179,125);fill-opacity:1"></path><path d="M54.9,0.6L47.7,-27.6L37.7,-21.0z" style="fill:rgb(217,132,91);fill-opacity:1"></path><path d="M21.7,41.5L39.2,24.4L-1.5,0.1z" style="fill:rgb(291,179,125);fill-opacity:1"></path><path d="M-0.5,-44.3L2.5,-55.1L-24.4,-38.8z" style="fill:rgb(294,181,126);fill-opacity:1"></path><path d="M48.2,-26.3L28.1,-47.4L21.1,-37.8z" style="fill:rgb(253,155,108);fill-opacity:1"></path><path d="M-29.8,0.5L-21.3,21.3L-1.0,1.4zM-21.9,20.6L-1.4,29.7L-1.5,0.8z" style="fill:rgb(291,179,125);fill-opacity:1"></path><path d="M0.1,-26.9L-20.2,-19.3L-21.9,-17.5z" style="fill:rgb(267,164,114);fill-opacity:1"></path><path d="M-0.4,-45.3L-24.2,-39.5L-0.6,1.7zM38.7,25.2L45.1,1.5L-1.8,0.5z" style="fill:rgb(291,179,125);fill-opacity:1"></path><path d="M44.1,2.5L55.3,-0.0L38.0,-21.8z" style="fill:rgb(217,132,91);fill-opacity:1"></path><path d="M22.0,-37.5L29.0,-47.1L-1.8,-44.8z" style="fill:rgb(280,172,120);fill-opacity:1"></path><path d="M-21.3,-18.9L-29.8,1.4L-1.0,2.1zM-2.4,29.6L18.2,21.6L-2.2,0.8z" style="fill:rgb(291,179,125);fill-opacity:1"></path><path d="M18.1,21.4L26.9,0.6L25.1,2.3z" style="fill:rgb(190,115,79);fill-opacity:1"></path><path d="M38.3,-20.3L48.3,-26.9L21.0,-38.6z" style="fill:rgb(253,155,108);fill-opacity:1"></path><path d="M22.6,-38.3L-1.3,-45.3L-1.1,1.7z" style="fill:rgb(291,179,125);fill-opacity:1"></path><path d="M16.8,22.3L18.7,20.6L25.7,1.5z" style="fill:rgb(190,115,79);fill-opacity:1"></path><path d="M45.1,2.4L38.7,-21.7L-1.8,1.0z" style="fill:rgb(291,179,125);fill-opacity:1"></path><path d="M-1.8,-25.4L0.1,-27.1L-22.0,-17.7z" style="fill:rgb(267,164,114);fill-opacity:1"></path><path d="M19.4,-17.7L-1.0,-27.2L-2.6,-25.3z" style="fill:rgb(241,147,102);fill-opacity:1"></path><path d="M39.2,-20.8L21.7,-38.8L-1.5,1.4zM-1.4,-26.3L-21.9,-18.3L-1.5,2.5z" style="fill:rgb(291,179,125);fill-opacity:1"></path><path d="M26.8,2.3L18.5,-19.0L16.8,-17.1z" style="fill:rgb(190,115,79);fill-opacity:1"></path><path d="M17.5,22.3L26.0,1.9L-2.7,1.3z" style="fill:rgb(291,179,125);fill-opacity:1"></path><path d="M25.1,3.2L27.0,1.5L16.9,-18.0z" style="fill:rgb(190,115,79);fill-opacity:1"></path><path d="M17.4,-16.5L19.3,-18.2L-2.8,-25.9z" style="fill:rgb(241,147,102);fill-opacity:1"></path><path d="M18.1,-17.2L-2.4,-26.3L-2.2,2.5zM26.0,2.9L17.5,-17.9L-2.7,2.0z" style="fill:rgb(291,179,125);fill-opacity:1"></path></svg>